<mxfile host="app.diagrams.net" modified="2023-04-27T23:30:42.805Z" agent="Mozilla/5.0 (Windows NT 10.0; Win64; x64) AppleWebKit/537.36 (KHTML, like Gecko) Chrome/111.0.0.0 Safari/537.36 OPR/97.0.0.0 (Edition Campaign 76)" etag="EPIVJzP2sBLsdcqzs_2j" version="21.2.3" type="device">
  <diagram name="Страница 1" id="L6Nc6ksHfgrGZwxnpiGt">
    <mxGraphModel dx="1073" dy="617" grid="1" gridSize="10" guides="1" tooltips="1" connect="1" arrows="1" fold="1" page="1" pageScale="1" pageWidth="827" pageHeight="1169" math="0" shadow="0">
      <root>
        <mxCell id="0" />
        <mxCell id="1" parent="0" />
        <mxCell id="8jiXpsmGnrj07FzS2UO0-1" value="Друзья_Человека" style="rounded=0;whiteSpace=wrap;html=1;" vertex="1" parent="1">
          <mxGeometry x="300" y="40" width="290" height="60" as="geometry" />
        </mxCell>
        <mxCell id="8jiXpsmGnrj07FzS2UO0-6" style="edgeStyle=orthogonalEdgeStyle;rounded=0;orthogonalLoop=1;jettySize=auto;html=1;exitX=1;exitY=0;exitDx=0;exitDy=0;entryX=0.5;entryY=1;entryDx=0;entryDy=0;" edge="1" parent="1" source="8jiXpsmGnrj07FzS2UO0-2" target="8jiXpsmGnrj07FzS2UO0-1">
          <mxGeometry relative="1" as="geometry" />
        </mxCell>
        <mxCell id="8jiXpsmGnrj07FzS2UO0-2" value="Домашние_Животные" style="rounded=0;whiteSpace=wrap;html=1;" vertex="1" parent="1">
          <mxGeometry x="70" y="160" width="210" height="60" as="geometry" />
        </mxCell>
        <mxCell id="8jiXpsmGnrj07FzS2UO0-7" style="edgeStyle=orthogonalEdgeStyle;rounded=0;orthogonalLoop=1;jettySize=auto;html=1;exitX=0;exitY=0;exitDx=0;exitDy=0;" edge="1" parent="1" source="8jiXpsmGnrj07FzS2UO0-3">
          <mxGeometry relative="1" as="geometry">
            <mxPoint x="450" y="100" as="targetPoint" />
          </mxGeometry>
        </mxCell>
        <mxCell id="8jiXpsmGnrj07FzS2UO0-3" value="Вьючные_Животные" style="rounded=0;whiteSpace=wrap;html=1;" vertex="1" parent="1">
          <mxGeometry x="600" y="160" width="210" height="60" as="geometry" />
        </mxCell>
        <mxCell id="8jiXpsmGnrj07FzS2UO0-15" style="edgeStyle=orthogonalEdgeStyle;rounded=0;orthogonalLoop=1;jettySize=auto;html=1;exitX=0.5;exitY=0;exitDx=0;exitDy=0;entryX=0.133;entryY=1.067;entryDx=0;entryDy=0;entryPerimeter=0;" edge="1" parent="1" source="8jiXpsmGnrj07FzS2UO0-8" target="8jiXpsmGnrj07FzS2UO0-2">
          <mxGeometry relative="1" as="geometry" />
        </mxCell>
        <mxCell id="8jiXpsmGnrj07FzS2UO0-8" value="Собаки" style="rounded=0;whiteSpace=wrap;html=1;" vertex="1" parent="1">
          <mxGeometry x="20" y="260" width="80" height="60" as="geometry" />
        </mxCell>
        <mxCell id="8jiXpsmGnrj07FzS2UO0-16" style="edgeStyle=orthogonalEdgeStyle;rounded=0;orthogonalLoop=1;jettySize=auto;html=1;exitX=0.5;exitY=0;exitDx=0;exitDy=0;entryX=0.424;entryY=1.033;entryDx=0;entryDy=0;entryPerimeter=0;" edge="1" parent="1" source="8jiXpsmGnrj07FzS2UO0-9" target="8jiXpsmGnrj07FzS2UO0-2">
          <mxGeometry relative="1" as="geometry" />
        </mxCell>
        <mxCell id="8jiXpsmGnrj07FzS2UO0-9" value="Кошки" style="rounded=0;whiteSpace=wrap;html=1;" vertex="1" parent="1">
          <mxGeometry x="120" y="260" width="80" height="60" as="geometry" />
        </mxCell>
        <mxCell id="8jiXpsmGnrj07FzS2UO0-17" style="edgeStyle=orthogonalEdgeStyle;rounded=0;orthogonalLoop=1;jettySize=auto;html=1;exitX=0.5;exitY=0;exitDx=0;exitDy=0;entryX=0.75;entryY=1;entryDx=0;entryDy=0;" edge="1" parent="1" source="8jiXpsmGnrj07FzS2UO0-10" target="8jiXpsmGnrj07FzS2UO0-2">
          <mxGeometry relative="1" as="geometry" />
        </mxCell>
        <mxCell id="8jiXpsmGnrj07FzS2UO0-10" value="Хомяки" style="rounded=0;whiteSpace=wrap;html=1;" vertex="1" parent="1">
          <mxGeometry x="220" y="260" width="80" height="60" as="geometry" />
        </mxCell>
        <mxCell id="8jiXpsmGnrj07FzS2UO0-21" style="edgeStyle=orthogonalEdgeStyle;rounded=0;orthogonalLoop=1;jettySize=auto;html=1;exitX=0.5;exitY=0;exitDx=0;exitDy=0;entryX=0.75;entryY=1;entryDx=0;entryDy=0;" edge="1" parent="1" source="8jiXpsmGnrj07FzS2UO0-11" target="8jiXpsmGnrj07FzS2UO0-3">
          <mxGeometry relative="1" as="geometry" />
        </mxCell>
        <mxCell id="8jiXpsmGnrj07FzS2UO0-11" value="Ослы" style="rounded=0;whiteSpace=wrap;html=1;" vertex="1" parent="1">
          <mxGeometry x="730" y="260" width="80" height="60" as="geometry" />
        </mxCell>
        <mxCell id="8jiXpsmGnrj07FzS2UO0-20" style="edgeStyle=orthogonalEdgeStyle;rounded=0;orthogonalLoop=1;jettySize=auto;html=1;exitX=0.5;exitY=0;exitDx=0;exitDy=0;entryX=0.5;entryY=1;entryDx=0;entryDy=0;" edge="1" parent="1" source="8jiXpsmGnrj07FzS2UO0-12" target="8jiXpsmGnrj07FzS2UO0-3">
          <mxGeometry relative="1" as="geometry" />
        </mxCell>
        <mxCell id="8jiXpsmGnrj07FzS2UO0-12" value="Верблюды" style="rounded=0;whiteSpace=wrap;html=1;" vertex="1" parent="1">
          <mxGeometry x="640" y="260" width="80" height="60" as="geometry" />
        </mxCell>
        <mxCell id="8jiXpsmGnrj07FzS2UO0-19" style="edgeStyle=orthogonalEdgeStyle;rounded=0;orthogonalLoop=1;jettySize=auto;html=1;exitX=0.5;exitY=0;exitDx=0;exitDy=0;entryX=0.25;entryY=1;entryDx=0;entryDy=0;" edge="1" parent="1" source="8jiXpsmGnrj07FzS2UO0-18" target="8jiXpsmGnrj07FzS2UO0-3">
          <mxGeometry relative="1" as="geometry" />
        </mxCell>
        <mxCell id="8jiXpsmGnrj07FzS2UO0-18" value="Лошади" style="rounded=0;whiteSpace=wrap;html=1;" vertex="1" parent="1">
          <mxGeometry x="540" y="260" width="80" height="60" as="geometry" />
        </mxCell>
      </root>
    </mxGraphModel>
  </diagram>
</mxfile>
